<svg width="28" height="28" viewBox="0 0 28 28" fill="none" xmlns="http://www.w3.org/2000/svg">
<path fill-rule="evenodd" clip-rule="evenodd" d="M27.6123 4.62852L23.3715 0.387678C22.8546 -0.129226 22.0165 -0.129226 21.4996 0.387678L14 7.88729L6.50039 0.387678C5.98349 -0.129226 5.14542 -0.129226 4.62852 0.387678L0.387678 4.62852C-0.129226 5.14542 -0.129226 5.98349 0.387678 6.50039L7.88729 14L0.387678 21.4996C-0.129226 22.0165 -0.129226 22.8546 0.387678 23.3715L4.62852 27.6123C5.14542 28.1292 5.98349 28.1292 6.50039 27.6123L14 20.1127L21.4996 27.6123C22.0165 28.1292 22.8546 28.1292 23.3715 27.6123L27.6123 23.3715C28.1292 22.8546 28.1292 22.0165 27.6123 21.4996L20.1127 14L27.6123 6.50039C28.1292 5.98349 28.1292 5.14542 27.6123 4.62852Z" fill="#31C3BD"/>
</svg>
